<svg width="256" height="256" viewBox="0 0 256 256" fill="none" xmlns="http://www.w3.org/2000/svg">
<path d="M244 128C244 192.065 192.065 244 128 244C63.935 244 12 192.065 12 128C12 63.935 63.935 12 128 12C192.065 12 244 63.935 244 128Z" fill="black" stroke="url(#paint0_radial_3_4)" stroke-width="24" stroke-linejoin="round"/>
<path d="M228 115.386L218.29 131.032V141.713H214.226V130.957L204.444 115.386H209.299L216.276 127.177L223.27 115.386H228Z" fill="white"/>
<path d="M227.101 115.886L217.866 130.768L217.79 130.889V131.032V141.213H214.726V130.957V130.813L214.649 130.691L205.349 115.886H209.014L215.845 127.431L216.275 128.158L216.706 127.432L223.555 115.886H227.101Z" stroke="white" stroke-opacity="0.01"/>
<path d="M195.897 115.386V119.41H187.752V141.713H183.687V119.41H175.541V115.386H195.897Z" fill="white"/>
<path d="M183.687 118.91H176.041V115.886H195.397V118.91H187.752H187.252V119.41V141.213H184.187V119.41V118.91H183.687Z" stroke="white" stroke-opacity="0.01"/>
<path d="M182.919 90L157.912 128.286L166.866 141.713H161.957L155.448 131.577L133.051 166.786H128.136L153.039 128.286L144.461 115.386H149.37L155.52 124.977L178.004 90H182.919Z" fill="white"/>
<path d="M181.995 90.5L157.493 128.013L157.312 128.289L157.496 128.564L165.932 141.213H162.23L155.869 131.307L155.446 130.649L155.026 131.309L132.776 166.286H129.055L153.458 128.558L153.637 128.283L153.455 128.009L145.394 115.886H149.097L155.099 125.247L155.52 125.902L155.941 125.247L178.277 90.5H181.995Z" stroke="white" stroke-opacity="0.01"/>
<path d="M132.693 115.386V141.713H128.63V115.386H132.693Z" fill="white"/>
<path d="M132.193 115.886V141.213H129.13V115.886H132.193Z" stroke="white" stroke-opacity="0.01"/>
<path d="M115.691 117.774L113.623 121.216C111.483 119.787 109.11 118.959 106.556 118.959C103.194 118.959 100.892 120.482 100.892 122.889C100.892 125.071 102.852 125.917 106.125 126.406L107.869 126.65C111.951 127.233 115.979 129.001 115.979 133.89C115.979 139.249 111.339 142.183 105.891 142.183C102.475 142.183 98.3747 140.998 95.7674 138.648L97.9791 135.263C99.7054 136.918 102.96 138.159 105.873 138.159C109.164 138.159 111.753 136.692 111.753 134.266C111.753 132.198 109.775 131.239 106.089 130.712L104.129 130.43C100.389 129.885 96.6665 128.042 96.6665 123.153C96.6665 117.868 101.144 114.935 106.592 114.935C110.26 114.935 113.155 116.007 115.691 117.774Z" fill="white"/>
<path d="M115.018 117.923L113.46 120.516C111.365 119.214 109.047 118.459 106.556 118.459C104.807 118.459 103.283 118.854 102.181 119.609C101.064 120.374 100.392 121.504 100.392 122.889C100.392 123.513 100.533 124.066 100.82 124.546C101.106 125.025 101.519 125.405 102.022 125.71C103.012 126.31 104.405 126.654 106.051 126.9L106.051 126.9L106.055 126.901L107.798 127.145C107.798 127.145 107.799 127.145 107.799 127.145C109.804 127.432 111.736 128.003 113.156 129.057C114.551 130.092 115.479 131.609 115.479 133.89C115.479 136.408 114.397 138.336 112.675 139.649C110.94 140.971 108.532 141.683 105.891 141.683C102.703 141.683 98.9282 140.619 96.4253 138.555L98.0818 136.02C99.9836 137.569 103.083 138.659 105.873 138.659C107.585 138.659 109.155 138.278 110.314 137.545C111.486 136.803 112.253 135.685 112.253 134.266C112.253 133.665 112.108 133.123 111.81 132.647C111.515 132.175 111.086 131.793 110.557 131.48C109.514 130.864 108.016 130.482 106.159 130.217L104.201 129.935C104.201 129.935 104.201 129.935 104.2 129.935C102.376 129.669 100.611 129.093 99.3111 128.033C98.0323 126.99 97.1665 125.451 97.1665 123.153C97.1665 120.668 98.2117 118.759 99.8923 117.458C101.586 116.146 103.952 115.435 106.592 115.435C109.966 115.435 112.654 116.366 115.018 117.923Z" stroke="white" stroke-opacity="0.01"/>
<path d="M76.2307 115.386L86.1744 141.713H81.8049L79.3235 134.999H67.9232L65.4418 141.713H61.2162L71.1599 115.386H76.2307ZM73.6234 119.617L69.4158 130.975H77.8311L73.6234 119.617Z" fill="white"/>
<path d="M79.7925 134.826L79.6717 134.499H79.3235H67.9232H67.575L67.4542 134.826L65.0935 141.213H61.9395L71.5055 115.886H75.8851L85.4511 141.213H82.1532L79.7925 134.826ZM74.0923 119.444L73.6234 118.178L73.1545 119.444L68.9469 130.802L68.6973 131.475H69.4158H77.8311H78.5495L78.2999 130.802L74.0923 119.444Z" stroke="white" stroke-opacity="0.01"/>
<path d="M41.1804 114.897C45.6578 114.897 49.6316 116.985 51.6097 120.407L48.2112 122.776C46.6826 120.445 44.1833 118.978 41.1804 118.978C36.0377 118.978 32.2616 122.87 32.2616 128.55C32.2616 134.228 36.0377 138.121 41.1804 138.121C44.1653 138.121 46.6287 136.711 48.1931 134.341L51.5017 136.88C49.3619 140.171 45.5858 142.202 41.1804 142.202C33.4484 142.202 28 136.41 28 128.55C28 120.689 33.4484 114.897 41.1804 114.897Z" fill="white"/>
<path d="M41.1804 115.397C45.3326 115.397 48.9916 117.252 50.9376 120.266L48.3358 122.08C46.701 119.859 44.1735 118.478 41.1804 118.478C35.7342 118.478 31.7616 122.622 31.7616 128.55C31.7616 134.476 35.7342 138.621 41.1804 138.621C44.1498 138.621 46.6411 137.296 48.303 135.056L50.8225 136.989C48.743 139.904 45.2543 141.702 41.1804 141.702C33.7445 141.702 28.5 136.154 28.5 128.55C28.5 120.945 33.7445 115.397 41.1804 115.397Z" stroke="white" stroke-opacity="0.01"/>
<defs>
<radialGradient id="paint0_radial_3_4" cx="0" cy="0" r="1" gradientUnits="userSpaceOnUse" gradientTransform="translate(128 128) rotate(90) scale(128)">
<stop offset="0.912773"/>
<stop offset="1" stop-color="#357184"/>
</radialGradient>
</defs>
</svg>
