<svg width="68" height="25" viewBox="0 0 68 25" fill="none" xmlns="http://www.w3.org/2000/svg">
<path d="M67.6824 8.59998L64.4424 13.592V17H63.0864V13.568L59.8224 8.59998H61.4424L63.7704 12.362L66.1044 8.59998H67.6824Z" fill="white" style="fill:white;fill-opacity:1;"/>
<path d="M56.9704 8.59998V9.88398H54.2524V17H52.8964V9.88398H50.1784V8.59998H56.9704Z" fill="white" style="fill:white;fill-opacity:1;"/>
<path d="M52.64 0.5L44.2955 12.716L47.2835 17H45.6455L43.4735 13.766L36 25H34.36L42.6695 12.716L39.8075 8.59998H41.4455L43.4975 11.66L51 0.5H52.64Z" fill="white" style="fill:white;fill-opacity:1;"/>
<path d="M35.8808 8.59998V17H34.5248V8.59998H35.8808Z" fill="white" style="fill:white;fill-opacity:1;"/>
<path d="M30.2074 9.36199L29.5174 10.46C28.8034 10.004 28.0114 9.73999 27.1594 9.73999C26.0374 9.73999 25.2694 10.226 25.2694 10.994C25.2694 11.69 25.9234 11.96 27.0154 12.116L27.5974 12.194C28.9594 12.38 30.3034 12.944 30.3034 14.504C30.3034 16.214 28.7554 17.15 26.9374 17.15C25.7974 17.15 24.4294 16.772 23.5594 16.022L24.2974 14.942C24.8734 15.47 25.9594 15.866 26.9314 15.866C28.0294 15.866 28.8934 15.398 28.8934 14.624C28.8934 13.964 28.2334 13.658 27.0034 13.49L26.3494 13.4C25.1014 13.226 23.8594 12.638 23.8594 11.078C23.8594 9.39199 25.3534 8.45599 27.1714 8.45599C28.3954 8.45599 29.3614 8.79799 30.2074 9.36199Z" fill="white" style="fill:white;fill-opacity:1;"/>
<path d="M17.0404 8.59998L20.3584 17H18.9004L18.0724 14.858H14.2684L13.4404 17H12.0304L15.3484 8.59998H17.0404ZM16.1704 9.94998L14.7664 13.574H17.5744L16.1704 9.94998Z" fill="white" style="fill:white;fill-opacity:1;"/>
<path d="M5.3449 8.44397C6.8389 8.44397 8.1649 9.10997 8.8249 10.202L7.6909 10.958C7.1809 10.214 6.3469 9.74597 5.3449 9.74597C3.6289 9.74597 2.3689 10.988 2.3689 12.8C2.3689 14.612 3.6289 15.854 5.3449 15.854C6.3409 15.854 7.1629 15.404 7.6849 14.648L8.7889 15.458C8.0749 16.508 6.8149 17.156 5.3449 17.156C2.7649 17.156 0.946899 15.308 0.946899 12.8C0.946899 10.292 2.7649 8.44397 5.3449 8.44397Z" fill="white" style="fill:white;fill-opacity:1;"/>
</svg>
